# xmcd
#
# Track frame offsets:
#	150
#	13089
#	25880
#	36217
#	46815
#	63172
#	72016
#	94017
#	106657
#	117951
#	130948
#	143757
#	153639
#	165340
#	178732
#	192774
#	207249
#	221116
#	233328
#	242873
#	258168
#	270167
#	284464
#	301031
#	313831
#	333992
#	349567
#
# Disc length: 4783 seconds
#
# Revision: 0
# Processed by: cddbd v1.5.2PL0 Copyright (c) Steve Scherf et al.
# Submitted via: audiograbber 1.83.01
#
DISCID=7012ad1b
DTITLE=Diverse - Country western 1955 - 1980 CD-6
DYEAR=1900
DGENRE=Country
TTITLE0=Jimmy Bell - She Wears My Ring 
TTITLE1=Johnny Cash - Folsom Prison Blues
TTITLE2=Hank Locklin - You´re The Reason
TTITLE3=Bobby Rydell - We Got Love
TTITLE4=Steppen Wolf - Rock Me
TTITLE5=The New Beats - Bread And Butter
TTITLE6=Bachman Turner Overdrive - Takin´ Care Of Business
TTITLE7=Elvis Presley - Indescribably Blue
TTITLE8=The Dovells - Hully Gully Baby
TTITLE9=Ronnie Hawkins - Hey Bo Diddley
TTITLE10=Johnny Horton - North To Alaska
TTITLE11=Bobby Curtola - Making Love
TTITLE12=Johnny Cash - Ring Of Fire
TTITLE13=Claude King - Wolverton Mountain
TTITLE14=Daniel Boone - Daddy Don´t You Walk So Fast
TTITLE15=Bobby Griffity - The Badger´s Song
TTITLE16=Van Morrison - Brown Eyed Girl
TTITLE17=Gallery - Louisiana Line
TTITLE18=Duane Eddy - 40 Miles Of Bad Road
TTITLE19=Confederation Railroad - Boogie Woogie Choo Choo Train
TTITLE20=Eddy Arnold - Make The Wolrd Go Away
TTITLE21=Sam Neely - Rosalie
TTITLE22=Tony Joe White - Polk Salad Annie
TTITLE23=Patsy Cline - I Fall To Pieces
TTITLE24=Arlo Guthrie - The City Of New Orleans
TTITLE25=Danyel Gerard - Butterfly
TTITLE26=Charlie Pride - Kiss an Angel Good Morning 
EXTD=
EXTT0=
EXTT1=
EXTT2=
EXTT3=
EXTT4=
EXTT5=
EXTT6=
EXTT7=
EXTT8=
EXTT9=
EXTT10=
EXTT11=
EXTT12=
EXTT13=
EXTT14=
EXTT15=
EXTT16=
EXTT17=
EXTT18=
EXTT19=
EXTT20=
EXTT21=
EXTT22=
EXTT23=
EXTT24=
EXTT25=
EXTT26=
PLAYORDER=
